<svg width="96" height="96" viewBox="0 0 96 96" fill="none" xmlns="http://www.w3.org/2000/svg">
    <g opacity="0.4">
        <path fill-rule="evenodd" clip-rule="evenodd"
              d="M47.4183 14C33.7161 14 22.5962 25.1489 22.5962 38.9167V60.2917C22.5962 60.6085 22.521 60.9208 22.3766 61.2028L17.2033 71.3113C17.1658 71.3847 17.1237 71.4557 17.0775 71.5238H78.0645C78.0271 71.4687 77.9924 71.4118 77.9606 71.3531L72.482 61.2447C72.3234 60.9521 72.2403 60.6245 72.2403 60.2917V38.9167C72.2403 25.1489 61.1205 14 47.4183 14ZM18.5962 38.9167C18.5962 22.9531 31.4937 10 47.4183 10C63.3429 10 76.2403 22.9531 76.2403 38.9167V59.7845L81.4066 69.3167C83.2456 71.8706 81.4491 75.5238 78.2229 75.5238H16.919C13.7023 75.5238 11.9069 71.8919 13.7192 69.3392L18.5962 59.8096V38.9167Z"
              fill="#05141F"/>
        <path d="M34.2051 73.125C34.07 73.8421 33.9995 74.5801 33.9995 75.3333C33.9995 82.3289 40.0757 88 47.571 88C55.0663 88 61.1424 82.3289 61.1424 75.3333C61.1424 74.5801 61.0719 73.8421 60.9369 73.125H56.8209C57.0314 73.8388 57.1424 74.5806 57.1424 75.3333C57.1424 79.8643 53.1215 84 47.571 84C42.0204 84 37.9995 79.8643 37.9995 75.3333C37.9995 74.5806 38.1105 73.8388 38.321 73.125H34.2051Z"
              fill="#05141F"/>
    </g>
</svg>
