<svg width="96" height="96" viewBox="0 0 96 96" fill="none" xmlns="http://www.w3.org/2000/svg">
    <g opacity="0.4">
        <path d="M32.8446 57.3782C32.8446 57.9464 32.3444 58.4438 31.7729 58.4438H26.3446C25.7731 58.4438 25.2729 57.9464 25.2729 57.3782L25.2735 46.9373C25.2735 46.369 25.7737 45.8717 26.3452 45.8717H31.7735C32.345 45.8717 32.8452 46.369 32.8452 46.9373L32.8446 57.3782ZM45.0587 57.3782C45.0587 57.9464 44.5586 58.4438 43.9871 58.4438H38.5587C37.9872 58.4438 37.487 57.9464 37.487 57.3782L37.4876 37.2065C37.4876 36.6382 37.9878 36.1408 38.5593 36.1408H43.9877C44.5591 36.1408 45.0593 36.6382 45.0593 37.2065L45.0587 57.3782ZM57.2723 57.3782C57.2723 57.9464 56.7721 58.4438 56.2006 58.4438H50.7722C50.2008 58.4438 49.7006 57.9464 49.7006 57.3782L49.7012 42.1077C49.7012 41.5394 50.2014 41.042 50.7728 41.042H56.2012C56.7727 41.042 57.2729 41.5394 57.2729 42.1077L57.2723 57.3782Z"
              fill="#05141F"/>
        <path d="M26.8841 16.0602L13.5405 16.0602C10.8821 16.0603 8.72754 18.2153 8.72754 20.8734V68.5967C8.72754 71.1757 10.6394 73.7495 13.4968 73.7495H55.8393C55.5526 72.4564 55.3832 71.1191 55.3429 69.7495H13.4968C13.3913 69.7495 13.2233 69.7025 13.0461 69.5007C12.8671 69.2969 12.7275 68.979 12.7275 68.5967V20.8734C12.7275 20.4241 13.0916 20.0602 13.5405 20.0602L26.8841 20.0602C27.0778 20.0602 27.2651 20.1293 27.4124 20.2552L33.1587 25.1661C33.7756 25.6934 34.5604 25.983 35.3719 25.983H71.5896C71.6954 25.983 71.8636 26.0302 72.0408 26.2319C72.2197 26.4354 72.3593 26.7529 72.3593 27.1352L72.3591 48.2123C73.6536 47.9469 74.9908 47.7987 76.3591 47.7793L76.3593 27.1352C76.3593 24.5542 74.4453 21.983 71.5896 21.983H35.5909L30.0112 17.2144C29.1396 16.4695 28.0307 16.0602 26.8841 16.0602Z"
              fill="#05141F"/>
        <path fill-rule="evenodd" clip-rule="evenodd"
              d="M76.6669 81.6256C84.0977 81.6256 90.1215 75.6018 90.1215 68.1711C90.1215 60.7403 84.0977 54.7165 76.6669 54.7165C69.2362 54.7165 63.2124 60.7403 63.2124 68.1711C63.2124 75.6018 69.2362 81.6256 76.6669 81.6256ZM76.6669 85.6256C86.3068 85.6256 94.1215 77.8109 94.1215 68.1711C94.1215 58.5312 86.3068 50.7165 76.6669 50.7165C67.0271 50.7165 59.2124 58.5312 59.2124 68.1711C59.2124 77.8109 67.0271 85.6256 76.6669 85.6256Z"
              fill="#05141F"/>
        <path fill-rule="evenodd" clip-rule="evenodd"
              d="M69.4346 72.5745L81.0704 60.9387L83.8988 63.7671L72.263 75.4029L69.4346 72.5745Z" fill="#05141F"/>
        <path fill-rule="evenodd" clip-rule="evenodd"
              d="M81.0709 75.403L69.4352 63.7672L72.2636 60.9388L83.8994 72.5745L81.0709 75.403Z" fill="#05141F"/>
    </g>
</svg>
