<svg width="120" height="63" viewBox="0 0 120 63" fill="none" xmlns="http://www.w3.org/2000/svg">
    <g clip-path="url(#clip0_184_1003)">
        <path d="M71.4375 4.54962C71.4375 3.96749 71.5596 3.44358 71.8039 2.97788C72.0482 2.51217 72.3987 2.14702 72.8554 1.88242C73.3121 1.61781 73.8511 1.48551 74.4725 1.48551C74.823 1.48551 75.1655 1.54108 75.5 1.65221C75.8346 1.76335 76.1108 1.90359 76.3285 2.07293V3.28746C76.1001 2.9964 75.8319 2.76884 75.5239 2.60479C75.2212 2.43544 74.884 2.35077 74.5123 2.35077C74.1565 2.35077 73.8325 2.44338 73.5405 2.6286C73.2537 2.80853 73.0253 3.0652 72.8554 3.3986C72.6855 3.732 72.6005 4.11567 72.6005 4.54962V4.69251C72.6005 5.12117 72.6855 5.5022 72.8554 5.8356C73.0253 6.169 73.2564 6.42831 73.5484 6.61353C73.8405 6.79875 74.1618 6.89137 74.5123 6.89137C74.884 6.89137 75.2212 6.80934 75.5239 6.64528C75.8319 6.47594 76.1001 6.24573 76.3285 5.95467V7.1692C76.1108 7.33854 75.8346 7.47879 75.5 7.58992C75.1655 7.70105 74.823 7.75662 74.4725 7.75662C73.8511 7.75662 73.3121 7.62432 72.8554 7.35971C72.3987 7.09511 72.0482 6.72996 71.8039 6.26425C71.5596 5.79855 71.4375 5.27464 71.4375 4.69251V4.54962Z"
              fill="#05141F"/>
        <path d="M77.0443 5.38312C77.0443 4.96505 77.1293 4.58931 77.2992 4.25591C77.4745 3.91722 77.7161 3.65526 78.0241 3.47004C78.3375 3.27953 78.6959 3.18427 79.0995 3.18427C79.7315 3.18427 80.22 3.38537 80.5652 3.78756C80.9157 4.18447 81.091 4.7322 81.091 5.43075V5.82766H78.056C78.0932 6.19281 78.218 6.47594 78.4304 6.67704C78.6428 6.87284 78.9296 6.97075 79.2907 6.97075C79.5721 6.97075 79.835 6.92047 80.0793 6.81992C80.3236 6.71937 80.5626 6.55003 80.7962 6.31188V7.28827C80.605 7.43645 80.374 7.55023 80.1032 7.62961C79.8377 7.71428 79.5536 7.75662 79.2509 7.75662C78.7835 7.75662 78.3826 7.66401 78.048 7.47879C77.7188 7.28827 77.4692 7.02631 77.2992 6.69291C77.1293 6.35951 77.0443 5.97584 77.0443 5.54189V5.38312ZM80.0713 5.04972C80.0713 4.70574 79.9811 4.43849 79.8005 4.24797C79.6253 4.05217 79.3889 3.95426 79.0915 3.95426C78.8154 3.95426 78.5791 4.05481 78.3826 4.25591C78.1914 4.45701 78.0852 4.72162 78.064 5.04972H80.0713Z"
              fill="#05141F"/>
        <path d="M82.0071 7.63755V3.30334H82.9709L83.0187 4.01777C83.109 3.76375 83.271 3.56265 83.5046 3.41447C83.7436 3.261 84.0171 3.18427 84.3251 3.18427C84.4632 3.18427 84.5774 3.1975 84.6676 3.22396V4.13684C84.5508 4.0945 84.4234 4.07334 84.2853 4.07334C83.9932 4.07334 83.7303 4.16066 83.4967 4.33529C83.263 4.50464 83.109 4.7322 83.0347 5.01797V7.63755H82.0071Z"
              fill="#05141F"/>
        <path d="M86.0864 4.08921H85.1464V3.30334H86.0864V1.98561H87.1139V3.30334H88.0778V4.08921H87.1139V7.63755H86.0864V4.08921Z"
              fill="#05141F"/>
        <path d="M89.8258 2.64448H88.7982V1.55696H89.8258V2.64448ZM89.8258 7.63755H88.7982V3.30334H89.8258V7.63755Z"
              fill="#05141F"/>
        <path d="M90.5451 4.09715V3.30334H91.4054V2.93025C91.4054 2.66564 91.4611 2.41692 91.5727 2.18407C91.6895 1.95121 91.8647 1.76335 92.0984 1.62046C92.3321 1.47228 92.6135 1.39819 92.9428 1.39819C93.0649 1.39819 93.1871 1.41407 93.3092 1.44582C93.4313 1.47228 93.5402 1.50933 93.6358 1.55696V2.46984C93.5668 2.40104 93.4818 2.34547 93.3809 2.30314C93.28 2.2608 93.1764 2.23963 93.0702 2.23963C92.8844 2.23963 92.7304 2.30049 92.6082 2.42221C92.4914 2.54393 92.433 2.72121 92.433 2.95406V3.30334H93.4446V4.09715H92.433V7.63755H91.4054V4.09715H90.5451Z"
              fill="#05141F"/>
        <path d="M95.3801 2.64448H94.3525V1.55696H95.3801V2.64448ZM95.3801 7.63755H94.3525V3.30334H95.3801V7.63755Z"
              fill="#05141F"/>
        <path d="M96.2587 5.38312C96.2587 4.96505 96.3436 4.58931 96.5136 4.25591C96.6888 3.91722 96.9304 3.65526 97.2384 3.47004C97.5518 3.27953 97.9102 3.18427 98.3138 3.18427C98.9458 3.18427 99.4343 3.38537 99.7795 3.78756C100.13 4.18447 100.305 4.7322 100.305 5.43075V5.82766H97.2703C97.3075 6.19281 97.4323 6.47594 97.6447 6.67704C97.8571 6.87284 98.1439 6.97075 98.505 6.97075C98.7865 6.97075 99.0493 6.92047 99.2936 6.81992C99.5379 6.71937 99.7769 6.55003 100.011 6.31188V7.28827C99.8194 7.43645 99.5883 7.55023 99.3175 7.62961C99.052 7.71428 98.7679 7.75662 98.4652 7.75662C97.9978 7.75662 97.5969 7.66401 97.2623 7.47879C96.9331 7.28827 96.6835 7.02631 96.5136 6.69291C96.3436 6.35951 96.2587 5.97584 96.2587 5.54189V5.38312ZM99.2856 5.04972C99.2856 4.70574 99.1954 4.43849 99.0148 4.24797C98.8396 4.05217 98.6032 3.95426 98.3059 3.95426C98.0297 3.95426 97.7934 4.05481 97.5969 4.25591C97.4057 4.45701 97.2995 4.72162 97.2783 5.04972H99.2856Z"
              fill="#05141F"/>
        <path d="M100.943 5.47044C100.943 5.01003 101.03 4.60784 101.205 4.26385C101.381 3.91457 101.617 3.64732 101.914 3.4621C102.212 3.27688 102.538 3.18427 102.894 3.18427C103.149 3.18427 103.391 3.23719 103.619 3.34303C103.847 3.44358 104.039 3.58382 104.193 3.76375V1.55696H105.22V7.63755H104.256L104.193 7.11363C104.06 7.30415 103.877 7.45762 103.643 7.57404C103.415 7.69576 103.165 7.75662 102.894 7.75662C102.538 7.75662 102.212 7.66401 101.914 7.47879C101.617 7.29356 101.381 7.02896 101.205 6.68497C101.03 6.3357 100.943 5.93085 100.943 5.47044ZM102.01 5.47044C102.01 5.79326 102.063 6.06845 102.169 6.29601C102.276 6.52357 102.414 6.69291 102.584 6.80405C102.753 6.91518 102.937 6.97075 103.133 6.97075C103.351 6.97075 103.555 6.90989 103.747 6.78817C103.943 6.66116 104.092 6.49181 104.193 6.28013V4.66076C104.092 4.44378 103.946 4.27444 103.754 4.15272C103.569 4.031 103.367 3.97014 103.149 3.97014C102.963 3.97014 102.783 4.02571 102.607 4.13684C102.432 4.24797 102.289 4.41732 102.177 4.64488C102.066 4.87244 102.01 5.14763 102.01 5.47044Z"
              fill="#05141F"/>
        <path d="M71.7322 16.0959V10.0629H74.1618C74.5388 10.0629 74.8787 10.1344 75.1814 10.2772C75.4894 10.4148 75.7311 10.6159 75.9063 10.8805C76.0815 11.1451 76.1692 11.4627 76.1692 11.8331V11.9601C76.1692 12.3306 76.0815 12.6481 75.9063 12.9127C75.7311 13.1773 75.4894 13.381 75.1814 13.5239C74.8787 13.6615 74.5388 13.7303 74.1618 13.7303H72.8076V16.0959H71.7322ZM74.0025 12.8651C74.3105 12.8651 74.5574 12.783 74.7433 12.619C74.9345 12.4549 75.0301 12.2327 75.0301 11.9522V11.8331C75.0301 11.5526 74.9345 11.3304 74.7433 11.1663C74.5574 11.0023 74.3105 10.9202 74.0025 10.9202H72.8076V12.8651H74.0025Z"
              fill="#05141F"/>
        <path d="M77.1218 16.0959V11.7617H78.0857L78.1335 12.4761C78.2238 12.2221 78.3857 12.021 78.6194 11.8728C78.8584 11.7193 79.1319 11.6426 79.4399 11.6426C79.5779 11.6426 79.6921 11.6558 79.7824 11.6823V12.5952C79.6656 12.5528 79.5381 12.5317 79.4 12.5317C79.108 12.5317 78.8451 12.619 78.6114 12.7936C78.3778 12.963 78.2238 13.1905 78.1494 13.4763V16.0959H77.1218Z"
              fill="#05141F"/>
        <path d="M80.1793 13.8415C80.1793 13.4234 80.2643 13.0476 80.4342 12.7142C80.6095 12.3756 80.8511 12.1136 81.1591 11.9284C81.4724 11.7379 81.8309 11.6426 82.2345 11.6426C82.8664 11.6426 83.355 11.8437 83.7002 12.2459C84.0507 12.6428 84.2259 13.1905 84.2259 13.8891V14.286H81.191C81.2281 14.6511 81.3529 14.9343 81.5654 15.1354C81.7778 15.3312 82.0645 15.4291 82.4257 15.4291C82.7071 15.4291 82.97 15.3788 83.2143 15.2783C83.4586 15.1777 83.6975 15.0084 83.9312 14.7702V15.7466C83.74 15.8948 83.509 16.0086 83.2382 16.0879C82.9726 16.1726 82.6885 16.215 82.3858 16.215C81.9185 16.215 81.5176 16.1223 81.183 15.9371C80.8537 15.7466 80.6042 15.4846 80.4342 15.1512C80.2643 14.8178 80.1793 14.4342 80.1793 14.0002V13.8415ZM83.2063 13.5081C83.2063 13.1641 83.116 12.8968 82.9355 12.7063C82.7602 12.5105 82.5239 12.4126 82.2265 12.4126C81.9504 12.4126 81.714 12.5131 81.5176 12.7142C81.3264 12.9153 81.2202 13.1799 81.1989 13.5081H83.2063Z"
              fill="#05141F"/>
        <path d="M87.4282 13.8415H85.0226V12.9286H87.4282V13.8415Z" fill="#05141F"/>
        <path d="M88.2636 13.008C88.2636 12.4152 88.3831 11.8887 88.6221 11.4283C88.8664 10.9626 89.2116 10.6001 89.6576 10.3407C90.1037 10.0761 90.6242 9.94384 91.2189 9.94384C91.819 9.94384 92.3421 10.0761 92.7882 10.3407C93.2343 10.6001 93.5768 10.9626 93.8158 11.4283C94.0547 11.8887 94.1742 12.4152 94.1742 13.008V13.1508C94.1742 13.7436 94.0547 14.2728 93.8158 14.7385C93.5768 15.1989 93.2343 15.5614 92.7882 15.826C92.3421 16.0853 91.819 16.215 91.2189 16.215C90.6242 16.215 90.1037 16.0853 89.6576 15.826C89.2116 15.5614 88.8664 15.1989 88.6221 14.7385C88.3831 14.2728 88.2636 13.7436 88.2636 13.1508V13.008ZM89.4266 13.1508C89.4266 13.5848 89.4983 13.9685 89.6417 14.3019C89.7851 14.6353 89.9895 14.8946 90.2551 15.0798C90.5259 15.265 90.8472 15.3576 91.2189 15.3576C91.5907 15.3576 91.912 15.265 92.1828 15.0798C92.4536 14.8946 92.6581 14.6353 92.7962 14.3019C92.9395 13.9685 93.0112 13.5848 93.0112 13.1508V13.008C93.0112 12.574 92.9395 12.1903 92.7962 11.8569C92.6581 11.5235 92.4536 11.2642 92.1828 11.079C91.912 10.8938 91.5907 10.8012 91.2189 10.8012C90.8472 10.8012 90.5259 10.8938 90.2551 11.079C89.9895 11.2642 89.7851 11.5235 89.6417 11.8569C89.4983 12.1903 89.4266 12.574 89.4266 13.008V13.1508Z"
              fill="#05141F"/>
        <path d="M95.927 16.1197L94.6524 11.7617H95.68L96.5164 14.8972L97.3688 11.7617H98.6114L99.4717 14.9131L100.316 11.7617H101.224L99.9736 16.0959H98.8504L97.9503 12.8016L97.074 16.0959L95.927 16.1197Z"
              fill="#05141F"/>
        <path d="M101.945 16.0959V11.7617H102.909L102.972 12.3888C103.126 12.1771 103.323 11.9998 103.562 11.8569C103.801 11.714 104.066 11.6426 104.358 11.6426C104.842 11.6426 105.216 11.7828 105.482 12.0633C105.752 12.3438 105.888 12.7434 105.888 13.262V16.0959H104.86V13.262C104.86 12.7116 104.637 12.4364 104.191 12.4364C103.931 12.4364 103.684 12.537 103.45 12.7381C103.222 12.9339 103.063 13.172 102.972 13.4525V16.0959H101.945Z"
              fill="#05141F"/>
        <path d="M106.683 13.8415C106.683 13.4234 106.768 13.0476 106.938 12.7142C107.113 12.3756 107.354 12.1136 107.662 11.9284C107.976 11.7379 108.334 11.6426 108.738 11.6426C109.37 11.6426 109.858 11.8437 110.203 12.2459C110.554 12.6428 110.729 13.1905 110.729 13.8891V14.286H107.694C107.731 14.6511 107.856 14.9343 108.069 15.1354C108.281 15.3312 108.568 15.4291 108.929 15.4291C109.21 15.4291 109.473 15.3788 109.718 15.2783C109.962 15.1777 110.201 15.0084 110.434 14.7702V15.7466C110.243 15.8948 110.012 16.0086 109.741 16.0879C109.476 16.1726 109.192 16.215 108.889 16.215C108.422 16.215 108.021 16.1223 107.686 15.9371C107.357 15.7466 107.107 15.4846 106.938 15.1512C106.768 14.8178 106.683 14.4342 106.683 14.0002V13.8415ZM109.71 13.5081C109.71 13.1641 109.619 12.8968 109.439 12.7063C109.264 12.5105 109.027 12.4126 108.73 12.4126C108.454 12.4126 108.217 12.5131 108.021 12.7142C107.83 12.9153 107.723 13.1799 107.702 13.5081H109.71Z"
              fill="#05141F"/>
        <path d="M111.367 13.9288C111.367 13.4684 111.454 13.0662 111.629 12.7222C111.805 12.3729 112.041 12.1057 112.338 11.9204C112.636 11.7352 112.962 11.6426 113.318 11.6426C113.573 11.6426 113.815 11.6955 114.043 11.8014C114.271 11.9019 114.463 12.0422 114.617 12.2221V10.0153H115.644V16.0959H114.68L114.617 15.572C114.484 15.7625 114.301 15.9159 114.067 16.0324C113.839 16.1541 113.589 16.215 113.318 16.215C112.962 16.215 112.636 16.1223 112.338 15.9371C112.041 15.7519 111.805 15.4873 111.629 15.1433C111.454 14.794 111.367 14.3892 111.367 13.9288ZM112.434 13.9288C112.434 14.2516 112.487 14.5268 112.593 14.7543C112.699 14.9819 112.838 15.1512 113.007 15.2624C113.177 15.3735 113.361 15.4291 113.557 15.4291C113.775 15.4291 113.979 15.3682 114.17 15.2465C114.367 15.1195 114.516 14.9501 114.617 14.7385V13.1191C114.516 12.9021 114.37 12.7328 114.178 12.611C113.993 12.4893 113.791 12.4285 113.573 12.4285C113.387 12.4285 113.207 12.484 113.031 12.5952C112.856 12.7063 112.713 12.8757 112.601 13.1032C112.49 13.3308 112.434 13.606 112.434 13.9288Z"
              fill="#05141F"/>
        <path d="M36.9746 14.5346C36.9746 14.6498 37.0109 14.7154 37.0802 14.7154C37.1298 14.7154 37.1771 14.6939 37.2343 14.6573L57.0969 2.04439C57.4458 1.82156 57.765 1.70423 58.2416 1.70423H62.6068C63.2782 1.70423 63.7262 2.14235 63.7262 2.79899V10.95C63.7262 11.9349 63.5027 12.5033 62.6079 13.0297L57.3126 16.1407C57.2422 16.1837 57.1849 16.2053 57.1354 16.2053C57.0716 16.2053 57.0121 16.1568 57.0121 15.9792V6.46543C57.0121 6.36208 56.9769 6.28243 56.9054 6.28243C56.8558 6.28243 56.8096 6.30396 56.7524 6.3384L42.2313 15.5626C41.8241 15.821 41.4895 15.8985 41.1175 15.8985H31.4911C30.8197 15.8985 30.3717 15.4604 30.3717 14.8037V3.05734C30.3717 2.97122 30.3321 2.89264 30.2649 2.89264C30.2154 2.89264 30.1692 2.9131 30.1086 2.9497L20.5318 8.57529C20.436 8.63127 20.4096 8.67863 20.4096 8.72277C20.4096 8.76367 20.4261 8.80027 20.4943 8.86702L27.3339 15.5562C27.4252 15.6455 27.4879 15.7133 27.4879 15.7833C27.4879 15.863 27.3878 15.8985 27.2711 15.8985H21.081C20.5956 15.8985 20.2225 15.8264 19.9605 15.5702L15.8132 11.514C15.7725 11.4742 15.7373 11.4495 15.6932 11.4495C15.6569 11.4495 15.6085 11.4667 15.5656 11.4936L8.62699 15.5712C8.20764 15.8177 7.91707 15.8985 7.50652 15.8985H1.11937C0.44797 15.8985 0 15.4604 0 14.8037V6.80236C0 5.81739 0.225636 5.25117 1.11937 4.72586L6.44658 1.5955C6.49941 1.56321 6.54674 1.55029 6.59077 1.55029C6.67112 1.55029 6.71514 1.63318 6.71514 1.81295V12.5108C6.71514 12.6228 6.74706 12.6755 6.82191 12.6755C6.87144 12.6755 6.91987 12.6465 6.9804 12.611L24.9806 2.03255C25.4099 1.77958 25.6741 1.70423 26.1683 1.70423H35.8541C36.5255 1.70423 36.9735 2.14235 36.9735 2.79899V14.5346H36.9746Z"
              fill="#05141F"/>
    </g>
    <path d="M25.062 53.9759H20.9077V31.1306H25.062V53.9759ZM7.93402 48.4407C6.41305 48.4407 5.05099 48.1052 3.84783 47.4343C2.64468 46.7634 1.70258 45.8576 1.02155 44.717C0.340516 43.5541 0 42.2681 0 40.8591V40.1547C0 38.7457 0.340516 37.4597 1.02155 36.2968C1.70258 35.1338 2.64468 34.2169 3.84783 33.546C5.05099 32.875 6.41305 32.5396 7.93402 32.5396C9.455 32.5396 10.8171 32.875 12.0202 33.546C13.2234 34.2169 14.1655 35.1338 14.8465 36.2968C15.5275 37.4597 15.868 38.7457 15.868 40.1547V40.8591C15.868 42.2681 15.5275 43.5541 14.8465 44.717C14.1655 45.8576 13.2234 46.7634 12.0202 47.4343C10.8171 48.1052 9.455 48.4407 7.93402 48.4407ZM7.93402 45.1531C9.13718 45.1531 10.102 44.7506 10.8284 43.9454C11.5548 43.118 11.9181 42.078 11.9181 40.8256V40.1882C11.9181 38.9134 11.5548 37.8735 10.8284 37.0684C10.102 36.2409 9.13718 35.8271 7.93402 35.8271C6.73087 35.8271 5.76607 36.2409 5.03964 37.0684C4.3132 37.8735 3.94999 38.9134 3.94999 40.1882V40.8256C3.94999 42.078 4.3132 43.118 5.03964 43.9454C5.76607 44.7506 6.73087 45.1531 7.93402 45.1531ZM5.48231 51.6947H9.63661V58.6724H26.3219V61.9935H5.48231V51.6947Z"
          fill="#05141F"/>
    <path d="M32.5086 41.4965C34.0977 41.1611 35.5733 40.6914 36.9354 40.0876C38.3201 39.4837 39.4552 38.824 40.3405 38.1083C41.2259 37.3927 41.748 36.6882 41.9069 35.9949H34.3474V32.7744H53.825V35.9949H46.2655C46.5152 37.0236 47.5141 38.0189 49.262 38.9805C51.01 39.9422 53.1553 40.6691 55.6978 41.1611L54.54 44.348C52.3607 43.9007 50.3744 43.2745 48.581 42.4694C46.8103 41.6419 45.3121 40.6802 44.0862 39.5844C42.8149 40.7697 41.2826 41.8096 39.4892 42.7042C37.7185 43.5764 35.7776 44.2474 33.6664 44.717L32.5086 41.4965ZM29.444 49.1452V45.824H58.7284V49.1452H29.444ZM44.0862 51.158C46.152 51.158 47.9227 51.404 49.3983 51.896C50.8965 52.3656 52.0316 53.0366 52.8034 53.9088C53.5979 54.7586 53.9952 55.765 53.9952 56.928V57.2299C53.9952 58.3929 53.5979 59.3993 52.8034 60.2491C52.0316 61.1213 50.8965 61.7923 49.3983 62.2619C47.9227 62.7539 46.152 62.9999 44.0862 62.9999C42.0204 62.9999 40.2384 62.7539 38.7401 62.2619C37.2645 61.7923 36.1295 61.1213 35.3349 60.2491C34.5631 59.3993 34.1772 58.3929 34.1772 57.2299V56.928C34.1772 55.765 34.5631 54.7586 35.3349 53.9088C36.1295 53.0366 37.2645 52.3656 38.7401 51.896C40.2384 51.404 42.0204 51.158 44.0862 51.158ZM49.875 56.9951C49.875 56.2123 49.3755 55.5861 48.3767 55.1165C47.4006 54.6468 45.9704 54.412 44.0862 54.412C42.202 54.412 40.7605 54.6468 39.7616 55.1165C38.7855 55.5861 38.2974 56.2123 38.2974 56.9951V57.1628C38.2974 57.9456 38.7855 58.5718 39.7616 59.0414C40.7605 59.5111 42.202 59.7459 44.0862 59.7459C45.9704 59.7459 47.4006 59.5111 48.3767 59.0414C49.3755 58.5718 49.875 57.9456 49.875 57.1628V56.9951Z"
          fill="#05141F"/>
    <path d="M82.1793 39.4166V31.1306H86.3336V49.4471H82.1793V42.7378H75.7776V39.4166H82.1793ZM75.5733 37.1355C75.5733 39.7968 74.4723 42.1898 72.2703 44.3145C70.091 46.4167 66.7766 48.2059 62.3272 49.6819L61.0333 46.3608C68.0252 44.2362 71.5211 41.2282 71.5211 37.3367V36.3639H62.3272V33.1099H75.5733V37.1355ZM86.3336 62.2955H66.7539V51.1244H86.3336V62.2955ZM82.2474 54.3784H70.8401V59.0414H82.2474V54.3784Z"
          fill="#05141F"/>
    <path d="M105.392 39.5844C104.166 40.8591 102.622 42.0333 100.761 43.1068C98.8994 44.1579 96.913 44.9854 94.8018 45.5892L93.4398 42.4358C95.1423 41.9886 96.7541 41.3512 98.2751 40.5237C99.7961 39.6962 101.011 38.8128 101.919 37.8735C102.827 36.9118 103.281 36.0284 103.281 35.2233V32.5731H107.435V35.2233C107.435 36.0061 107.878 36.8335 108.763 37.7058C109.648 38.578 110.84 39.3943 112.338 40.1547C113.859 40.8927 115.517 41.4965 117.31 41.9662L115.948 45.1531C113.746 44.5493 111.725 43.7665 109.887 42.8049C108.048 41.8208 106.55 40.7473 105.392 39.5844ZM90.7156 48.1052H120V51.4263H107.435V61.8929H103.281V51.4263H90.7156V48.1052Z"
          fill="#05141F"/>
    <defs>
        <clipPath id="clip0_184_1003">
            <rect width="116" height="16.9167" fill="white"/>
        </clipPath>
    </defs>
</svg>
