<svg width="96" height="96" viewBox="0 0 96 96" fill="none" xmlns="http://www.w3.org/2000/svg">
    <g opacity="0.4">
        <path d="M50.2166 40.4006C54.4027 40.5942 58.038 41.6364 61.5162 43.3562C65.5588 45.359 69.0719 48.2618 71.8277 51.7945L71.8285 51.7955L73.403 53.8114L76.5554 51.3493L74.9816 49.3343C71.8663 45.3407 67.8865 42.0482 63.2919 39.7719L63.2906 39.7713C58.907 37.6036 54.2381 36.3678 48.7793 36.3678C47.9383 36.3678 47.1045 36.4 46.2792 36.4632L50.2166 40.4006Z"
              fill="#05141F"/>
        <path d="M42.6227 41.0368L39.3464 37.7605C37.3439 38.3651 35.4184 39.1553 33.5878 40.1089C28.8363 42.5702 24.7555 46.1776 21.6669 50.5326L20.1679 52.6167L23.4152 54.9523L24.9182 52.8627L24.9261 52.8515C27.6593 48.9961 31.2606 45.8188 35.4295 43.6597L35.4339 43.6575C37.6862 42.4839 40.0964 41.5934 42.6227 41.0368Z"
              fill="#05141F"/>
        <path d="M37.082 27.2661C40.7334 26.2618 44.5795 25.7218 48.5617 25.7218C55.1483 25.7218 61.4108 27.2103 67.0112 29.8714L67.013 29.8722C72.8219 32.6252 77.8946 36.6168 81.8689 41.5077L81.8712 41.5106L83.4499 43.446L86.5495 40.9177L84.9732 38.9852L84.9721 38.9839C80.62 33.6284 75.072 29.2652 68.727 26.2581C62.603 23.3484 55.7556 21.7218 48.5617 21.7218C43.4235 21.7218 38.4903 22.5458 33.8719 24.056L37.082 27.2661Z"
              fill="#05141F"/>
        <path d="M28.0043 26.4184L31.0173 29.4314C30.4258 29.6936 29.841 29.9684 29.2635 30.2554C23.2484 33.2799 18.062 37.6334 14.1118 42.9501L14.1056 42.9585L12.5986 44.9647L9.40039 42.5623L10.901 40.5646L10.9043 40.5602C15.2312 34.738 20.9041 29.9807 27.4708 26.6797L27.4786 26.6757C27.6532 26.5889 27.8285 26.5031 28.0043 26.4184Z"
              fill="#05141F"/>
        <path d="M52.2411 50.6551L63.5749 61.989L62.602 62.7373L61.0363 60.7014C59.4824 58.6746 57.5358 57.0402 55.2844 55.9174L55.279 55.9147C53.1346 54.8373 50.7389 54.2428 48.2134 54.2428C45.5408 54.2428 43.0424 54.9024 40.8116 56.0915L40.8048 56.0951L40.798 56.0987C38.488 57.3074 36.4757 59.0968 34.9199 61.3037L34.9171 61.3078L33.4528 63.4077L30.1717 61.1197L31.6416 59.0119L31.6471 59.004C33.5494 56.304 36.0361 54.0774 38.9366 52.5582C41.7289 51.071 44.8694 50.2428 48.2134 50.2428C49.5894 50.2428 50.9365 50.3841 52.2411 50.6551Z"
              fill="#05141F"/>
        <path fill-rule="evenodd" clip-rule="evenodd"
              d="M69.3844 73.2668L16.1871 20.0696L19.0156 17.2412L72.2128 70.4384L69.3844 73.2668Z" fill="#05141F"/>
        <path d="M54.1666 68.7656C54.1666 71.9385 51.5945 74.5106 48.4216 74.5106C45.2487 74.5106 42.6766 71.9385 42.6766 68.7656C42.6766 65.5928 45.2487 63.0206 48.4216 63.0206C51.5945 63.0206 54.1666 65.5928 54.1666 68.7656Z"
              fill="#05141F"/>
    </g>
</svg>
