<svg width="30" height="16" viewBox="0 0 30 16" fill="none" xmlns="http://www.w3.org/2000/svg">
    <rect width="30" height="16" rx="8" fill="#5D7D2B"/>
    <path d="M6.08203 10.5H7.21094V6.89453H7.27344L9.88281 10.5H10.8594V4.86328H9.73047V8.45312H9.66797L7.06641 4.86328H6.08203V10.5ZM12.2305 10.5H15.9648V9.52734H13.4102V8.10156H15.8203V7.19531H13.4102V5.83594H15.9648V4.86328H12.2305V10.5ZM18.3594 10.5H19.4727L20.5273 6.70312H20.5898L21.6562 10.5H22.7617L24.2578 4.86328H23.0391L22.168 8.89062H22.1055L21.0586 4.86328H20.0625L19.0352 8.89062H18.9727L18.0938 4.86328H16.8672L18.3594 10.5Z"
          fill="white"/>
</svg>
