<svg width="96" height="96" viewBox="0 0 96 96" fill="none" xmlns="http://www.w3.org/2000/svg">
    <g opacity="0.4">
        <path fill-rule="evenodd" clip-rule="evenodd" d="M59 25.5V8.5H63V25.5H59Z" fill="#05141F"/>
        <path fill-rule="evenodd" clip-rule="evenodd" d="M29 25.5V8.5H33V25.5H29Z" fill="#05141F"/>
        <path fill-rule="evenodd" clip-rule="evenodd"
              d="M59 56.5H63V66.6716L69.4142 73.0858L66.5858 75.9142L59 68.3284V56.5Z" fill="#05141F"/>
        <path fill-rule="evenodd" clip-rule="evenodd"
              d="M61 84C71.4934 84 80 75.4934 80 65C80 54.5066 71.4934 46 61 46C50.5066 46 42 54.5066 42 65C42 75.4934 50.5066 84 61 84ZM61 88C73.7025 88 84 77.7025 84 65C84 52.2975 73.7025 42 61 42C48.2975 42 38 52.2975 38 65C38 77.7025 48.2975 88 61 88Z"
              fill="#05141F"/>
        <path d="M17 15C13.6863 15 11 17.6863 11 21V79C11 82.3102 13.6774 85 16.9946 85H42.8613C41.5292 83.7911 40.3184 82.451 39.2492 81H16.9946C15.8935 81 15 80.1081 15 79V21C15 19.8954 15.8954 19 17 19H75C76.1046 19 77 19.8954 77 21V43.2492C78.451 44.3184 79.7911 45.5292 81 46.8613V21C81 17.6863 78.3137 15 75 15H17Z"
              fill="#05141F"/>
    </g>
</svg>
